<svg xmlns="http://www.w3.org/2000/svg" width="1600" height="1000" viewBox="0 0 1600 1000">
  <defs>
    <filter id="shadow" x="-20%" y="-20%" width="140%" height="140%"><feDropShadow dx="0" dy="14" stdDeviation="18" flood-opacity="0.12"/></filter>
    <linearGradient id="hero" x1="0" x2="1" y1="0" y2="1"><stop stop-color="#dfe8e2"/><stop offset="1" stop-color="#b9cfc3"/></linearGradient>
    <style>
      .bg{fill:#f7f8f6}.phone{fill:white;stroke:#202522;stroke-width:3}.card{fill:#fff;stroke:#e7ebe8;stroke-width:1.2}.soft{fill:#f3f6f4}.green{fill:#315f4d}.mint{fill:#dff2e7}.orange{fill:#fff0d6}.text{font-family:Arial,Helvetica,sans-serif;fill:#151b18}.muted{font-family:Arial,Helvetica,sans-serif;fill:#718078}.title{font-family:Arial,Helvetica,sans-serif;font-weight:700;fill:#101512}.small{font-size:13px}.body{font-size:16px}.h2{font-size:24px;font-weight:700}.h1{font-size:38px;font-weight:700}
    </style>
  </defs>
  <rect class="bg" width="1600" height="1000"/>
  <text x="70" y="70" class="text h1">OnlinePRorab</text>
  <text x="70" y="106" class="muted body">Минималистичный UI-референс · объекты · расходы · голосовой AI-поиск · аналитика</text>

  <!-- PHONE 1: objects -->
  <g transform="translate(45 145)" filter="url(#shadow)">
    <rect class="phone" rx="38" width="350" height="760"/>
    <rect x="130" y="14" width="90" height="24" rx="12" fill="#101512"/>
    <text x="28" y="65" class="text h2">OnlinePRorab</text>
    <text x="28" y="101" class="text" font-size="28" font-weight="700">Объекты</text>
    <rect x="247" y="74" width="75" height="36" rx="12" class="green"/><text x="264" y="98" fill="white" font-family="Arial" font-size="14">+ Добавить</text>
    <rect x="28" y="128" width="294" height="44" rx="13" class="soft"/><text x="46" y="156" class="muted body">⌕  Поиск по объектам...</text>

    <g transform="translate(28 192)"><rect width="294" height="152" rx="18" class="card"/><rect x="12" y="12" width="105" height="82" rx="14" fill="url(#hero)"/><path d="M25 77 L64 42 L105 78 V94 H25Z" fill="#315f4d" opacity=".88"/><text x="132" y="32" class="text body" font-weight="700">Дом у озера</text><text x="132" y="55" class="muted small">Бишкек, Орто-Сай</text><rect x="132" y="70" width="70" height="24" rx="12" class="mint"/><text x="145" y="87" fill="#2f7657" font-family="Arial" font-size="12">В работе</text><rect x="12" y="112" width="222" height="8" rx="4" fill="#e8ece9"/><rect x="12" y="112" width="145" height="8" rx="4" class="green"/><text x="250" y="122" class="text small">65%</text></g>
    <g transform="translate(28 360)"><rect width="294" height="138" rx="18" class="card"/><rect x="12" y="12" width="105" height="72" rx="14" fill="#d8dfda"/><rect x="26" y="27" width="76" height="52" rx="5" fill="#657a70"/><text x="132" y="32" class="text body" font-weight="700">Коттедж Асана</text><text x="132" y="55" class="muted small">Чуйская область</text><rect x="12" y="103" width="222" height="8" rx="4" fill="#e8ece9"/><rect x="12" y="103" width="67" height="8" rx="4" class="green"/><text x="250" y="113" class="text small">30%</text></g>
    <g transform="translate(28 514)"><rect width="294" height="138" rx="18" class="card"/><rect x="12" y="12" width="105" height="72" rx="14" fill="#e1e5e2"/><path d="M20 76 L58 44 L107 78 V84 H20Z" fill="#52645b"/><text x="132" y="32" class="text body" font-weight="700">Дача родителей</text><text x="132" y="55" class="muted small">Иссык-Куль</text><rect x="12" y="103" width="222" height="8" rx="4" fill="#e8ece9"/><rect x="12" y="103" width="24" height="8" rx="4" class="green"/><text x="250" y="113" class="text small">10%</text></g>
    <line x1="0" y1="690" x2="350" y2="690" stroke="#e7ebe8"/><text x="42" y="728" class="green body">⌂</text><text x="110" y="728" class="muted body">□</text><text x="185" y="728" class="muted body">✓</text><text x="265" y="728" class="muted body">◦</text>
  </g>

  <!-- PHONE 2: object overview -->
  <g transform="translate(430 145)" filter="url(#shadow)">
    <rect class="phone" rx="38" width="350" height="760"/>
    <rect x="130" y="14" width="90" height="24" rx="12" fill="#101512"/>
    <text x="28" y="72" class="text h2">Дом у озера</text><text x="302" y="72" class="text h2">•••</text>
    <rect x="28" y="95" width="294" height="162" rx="20" fill="url(#hero)"/>
    <path d="M58 220 L140 135 L238 218 V245 H58Z" fill="#52695e"/><rect x="107" y="180" width="86" height="65" fill="#e9ece9" opacity=".82"/>
    <text x="28" y="294" class="text h2">Дом у озера</text><text x="28" y="321" class="muted body">Частный дом · 180 м²</text>
    <text x="28" y="360" class="text body" font-weight="700">Общий прогресс</text><text x="275" y="360" class="text body" font-weight="700">65%</text><rect x="28" y="374" width="294" height="10" rx="5" fill="#e8ece9"/><rect x="28" y="374" width="191" height="10" rx="5" class="green"/>
    <g transform="translate(28 410)"><rect width="140" height="84" rx="16" class="soft"/><text x="16" y="28" class="muted small">Потрачено</text><text x="16" y="58" class="text body" font-weight="700">3 480 000 сом</text></g>
    <g transform="translate(182 410)"><rect width="140" height="84" rx="16" class="soft"/><text x="16" y="28" class="muted small">Бюджет</text><text x="16" y="58" class="text body" font-weight="700">5 200 000 сом</text></g>
    <text x="28" y="535" class="text body" font-weight="700">Разделы объекта</text>
    <g transform="translate(28 554)"><rect width="66" height="64" rx="16" class="soft"/><text x="23" y="30" class="green h2">₽</text><text x="8" y="53" class="muted small">Расходы</text></g>
    <g transform="translate(104 554)"><rect width="66" height="64" rx="16" class="soft"/><text x="23" y="30" class="green h2">✓</text><text x="14" y="53" class="muted small">Задачи</text></g>
    <g transform="translate(180 554)"><rect width="66" height="64" rx="16" class="soft"/><text x="22" y="30" class="green h2">👥</text><text x="9" y="53" class="muted small">Команда</text></g>
    <g transform="translate(256 554)"><rect width="66" height="64" rx="16" class="soft"/><text x="21" y="30" class="green h2">▣</text><text x="17" y="53" class="muted small">Фото</text></g>
    <text x="28" y="659" class="text body" font-weight="700">Последние события</text><text x="28" y="690" class="muted small">Добавлен расход: Цемент · 12 500 сом</text><text x="28" y="715" class="muted small">Загружены фото · Внутренняя отделка</text>
  </g>

  <!-- PHONE 3: expenses + voice -->
  <g transform="translate(815 145)" filter="url(#shadow)">
    <rect class="phone" rx="38" width="350" height="760"/>
    <rect x="130" y="14" width="90" height="24" rx="12" fill="#101512"/>
    <text x="28" y="72" class="text h2">Расходы</text><text x="28" y="96" class="muted small">Дом у озера</text>
    <rect x="28" y="116" width="294" height="46" rx="14" class="soft"/><text x="46" y="145" class="muted body">⌕ Поиск расходов...</text><circle cx="295" cy="139" r="22" class="green"/><text x="287" y="147" fill="white" font-family="Arial" font-size="20">●</text>
    <g transform="translate(28 182)"><rect width="294" height="92" rx="16" class="card"/><rect x="14" y="14" width="64" height="64" rx="12" fill="#d8dfda"/><text x="92" y="33" class="text body" font-weight="700">Окна (Rehau)</text><text x="92" y="57" class="muted small">Материалы · 12 мая</text><text x="214" y="35" class="text body" font-weight="700">186 500</text><rect x="200" y="56" width="78" height="22" rx="11" class="mint"/><text x="211" y="72" fill="#2f7657" font-family="Arial" font-size="11">Подтвержден</text></g>
    <g transform="translate(28 286)"><rect width="294" height="92" rx="16" class="card"/><rect x="14" y="14" width="64" height="64" rx="12" fill="#e7e0d3"/><text x="92" y="33" class="text body" font-weight="700">Цемент</text><text x="92" y="57" class="muted small">Материалы · 10 мая</text><text x="226" y="35" class="text body" font-weight="700">12 500</text></g>
    <g transform="translate(28 390)"><rect width="294" height="92" rx="16" class="card"/><rect x="14" y="14" width="64" height="64" rx="12" fill="#dddcd8"/><text x="92" y="33" class="text body" font-weight="700">Электрика</text><text x="92" y="57" class="muted small">Работы · 8 мая</text><text x="226" y="35" class="text body" font-weight="700">48 000</text><rect x="208" y="56" width="70" height="22" rx="11" class="orange"/><text x="218" y="72" fill="#9b6721" font-family="Arial" font-size="11">На проверке</text></g>
    <g transform="translate(28 512)"><rect width="294" height="142" rx="20" fill="#eef4f0" stroke="#dce8e0"/><text x="18" y="30" class="text body" font-weight="700">Голосовой AI-поиск</text><text x="18" y="55" class="muted small">Нажмите микрофон и скажите:</text><text x="18" y="83" class="text small">«Сколько потратили на окна?»</text><text x="18" y="107" class="text small">«Покажи расходы на цемент за май»</text><circle cx="254" cy="95" r="28" class="green"/><text x="244" y="104" fill="white" font-family="Arial" font-size="24">●</text></g>
    <rect x="28" y="684" width="294" height="48" rx="16" class="green"/><text x="111" y="715" fill="white" font-family="Arial" font-size="16">+ Добавить расход</text>
  </g>

  <!-- PHONE 4: AI result/analytics -->
  <g transform="translate(1200 145)" filter="url(#shadow)">
    <rect class="phone" rx="38" width="350" height="760"/>
    <rect x="130" y="14" width="90" height="24" rx="12" fill="#101512"/>
    <text x="28" y="72" class="text h2">Результат поиска</text>
    <rect x="28" y="100" width="294" height="46" rx="14" class="soft"/><text x="43" y="129" class="text small">Сколько мы потратили на окна?</text><circle cx="296" cy="123" r="18" class="green"/>
    <rect x="28" y="165" width="294" height="136" rx="20" fill="#eef4f0"/><text x="46" y="197" class="muted small">Найдено по запросу «Окна»</text><text x="46" y="238" class="text" font-size="31" font-weight="700">186 500 сом</text><text x="46" y="270" class="muted small">4 записи · все подтвержденные</text>
    <text x="28" y="340" class="text body" font-weight="700">Найденные расходы</text>
    <g transform="translate(28 360)"><rect width="294" height="72" rx="14" class="card"/><text x="16" y="28" class="text body" font-weight="700">Окна Rehau</text><text x="16" y="51" class="muted small">12 мая 2024</text><text x="214" y="31" class="text body" font-weight="700">121 000</text></g>
    <g transform="translate(28 444)"><rect width="294" height="72" rx="14" class="card"/><text x="16" y="28" class="text body" font-weight="700">Монтаж окон</text><text x="16" y="51" class="muted small">15 мая 2024</text><text x="226" y="31" class="text body" font-weight="700">45 000</text></g>
    <g transform="translate(28 528)"><rect width="294" height="72" rx="14" class="card"/><text x="16" y="28" class="text body" font-weight="700">Доставка</text><text x="16" y="51" class="muted small">11 мая 2024</text><text x="226" y="31" class="text body" font-weight="700">12 000</text></g>
    <g transform="translate(28 612)"><rect width="294" height="72" rx="14" class="card"/><text x="16" y="28" class="text body" font-weight="700">Доп. материалы</text><text x="16" y="51" class="muted small">16 мая 2024</text><text x="236" y="31" class="text body" font-weight="700">8 500</text></g>
    <text x="28" y="720" class="muted small">AI только понимает запрос. Суммы берутся из базы данных.</text>
  </g>

  <text x="70" y="962" class="muted body">Design direction: clean construction management UI, neutral background, deep green accent, card-based navigation, voice-to-search without spoken responses.</text>
</svg>